<?xml version="1.0" encoding="utf-8"?>
<!-- Generator: Adobe Illustrator 27.5.0, SVG Export Plug-In . SVG Version: 6.00 Build 0)  -->
<svg version="1.1" id="Layer_1" xmlns="http://www.w3.org/2000/svg" xmlns:xlink="http://www.w3.org/1999/xlink" x="0px" y="0px"
	 viewBox="0 0 4000 4000" style="enable-background:new 0 0 4000 4000;" xml:space="preserve">
<polygon style="display:none;fill:none;stroke:#0A5244;stroke-width:2.9284;stroke-miterlimit:10;" points="1464.72,1835.997 
	1392.264,1835.997 1392.264,1763.541 1349.287,1763.541 1349.287,1835.997 1276.83,1835.997 1276.83,1878.974 1349.287,1878.974 
	1349.287,1951.43 1392.264,1951.43 1392.264,1878.974 1464.72,1878.974 "/>
<g>
	<path style="fill:#DAD9ED;" d="M2021.718,2616.479h-738.501c-19.932,0-37.149-13.939-41.297-33.435l-131.548-618.276
		c-5.589-26.267,14.442-51.008,41.297-51.008H1913.3c20.505,0,38.046,14.732,41.587,34.929l108.418,618.276
		C2067.836,2592.806,2047.952,2616.479,2021.718,2616.479z"/>
	<g>
		<g id="Artwork_7_00000012474562439441728920000009100040312963924924_">
			<g id="Artwork_19_00000018199911369866221500000000152061839452692918_">
				<g>
					<g id="Artwork_12_00000108294651261160280960000010066957529215408799_">
						<g>
							<g>
								<g>
									<g>
										<path style="fill:#F8A583;" d="M2007.19,3116.353c-55.217-27.847-80.683-89.949-51.781-147.124
											c28.837-57.179,97.041-80.953,152.229-53.068c55.263,27.948,76.644,96.862,47.684,154.082
											C2126.411,3127.462,2062.388,3144.333,2007.19,3116.353z"/>
										<g>
											<path style="fill:#F8A583;" d="M2055.807,3129.352c-285.9-54.676-440.251-115.224-552.125-157.132
												c-39.947-15.015,9.899-118.687,52.325-114.05c0,0,265.181,47.331,490.014,84.729L2055.807,3129.352z"/>
										</g>
										<g>
											<path style="fill:#F8A583;" d="M1601.846,2984.366c-30.641,25.301-98.312,34.108-151.432,10.341
												c0,0-35.365-23.208-38.816-59.393c-4.053-41.838,25.073-81.789,45.626-89.61c34.705-13.234,76.986,15.782,123.742,25.656
												C1652.396,2886.406,1617.504,2971.519,1601.846,2984.366z"/>
											<path style="fill:#EF8564;" d="M1473.256,2853.981c-0.483-0.538-1.51-0.038-1.344,0.694
												c9.242,40.446,57.526,80.567,98.5,74.53c2.097-0.322,2.292-3.537,0.286-4.153c-18.89-6.682-36.507-10.819-53.674-22.04
												C1497.722,2890.413,1485.879,2872.992,1473.256,2853.981z"/>
											<path style="fill:#EF8564;" d="M1499.218,2936.084c-12.712,1.406-22.737,23.328-22.465,34.858
												c4.89-4.619,7.213-11.07,10.725-16.406c3.991-5.972,8.935-10.437,13.26-15.89
												C1501.749,2937.417,1500.403,2935.927,1499.218,2936.084z"/>
										</g>
									</g>
									<g>
										<g>
											<path style="fill:#F8A583;" d="M2319.473,2666.102c80.021-140.336,36.08-317.592-53.075-257.65
												c-236.943,159.462-309.301,643.091-309.301,643.091l182.15,44.997C2139.247,3096.54,2264.94,2761.965,2319.473,2666.102z
												"/>
										</g>
									</g>
									<path style="fill:#6163AD;" d="M1995.549,2932.397c-0.376-85.116,62.047-345.645,75.333-389.829
										c53.783-178.507,163.446-197.878,225.473-218.517c39.701,81.306,45.001,416.567-55.354,660.509
										C2179.213,3009.707,2033.067,2983.625,1995.549,2932.397z"/>
									<g>
										<path style="fill:#6163AD;" d="M2197.502,3249.484h594.01c-3.087-37.796-5.307-107.212-5.646-175.021
											c58.894-344.929,138.8-658.574,60.736-709.493c-171.407-111.797-403.252-159.878-622.831-15.389
											c0.222-0.148,11.114,97.202-21.158,157.008c-51.73,95.81-98.723,215.524-21.634,394.501
											C2203.877,2954.244,2196.867,3154.116,2197.502,3249.484z"/>
									</g>
									<g>
										<path style="fill:#F8A583;" d="M2621.746,2136.385l-169.501-7.28l-12.958,153.31
											c46.047,26.255,126.375,27.721,182.064,7.861L2621.746,2136.385z"/>
									</g>
									<g>
										<g>
											<path style="fill:#F8A583;" d="M2798.273,2699.198c-43.281-155.641,42.664-316.775,114.458-236.854
												c190.764,212.553,142.684,699.196,142.684,699.196l-187.623-0.903
												C2867.791,3160.636,2827.713,2805.484,2798.273,2699.198z"/>
											<path style="fill:#F8A583;" d="M3054.993,3165.781c-7.298,51.552-49.949,88.629-103.373,81.034
												c-53.388-7.565-90.757-55.528-83.384-107.065c7.323-51.588,56.504-87.256,109.966-79.655
												C3031.627,3067.697,3062.378,3114.212,3054.993,3165.781z"/>
										</g>
										<path style="fill:#6163AD;" d="M3086.499,3069.731c10.439-134.34-58.707-447.311-73.167-491.112
											c-51.593-156.075-157.465-217.966-219.388-238.877c-40.09,81.145-19.964,463.696,36.466,681.488
											C2852.242,3105.455,3059.719,3105.956,3086.499,3069.731z"/>
									</g>
								</g>
								<g>
									<g>
										<path style="fill:#F7A08D;" d="M2421.662,2314.774c14.354,41.397,58.654,49.813,97.474,48.166
											c42.849-1.81,99.203-13.473,113.019-60.872c9.493-32.687,0.767-69.615-0.44-102.955
											c-0.815-22.15-0.799-44.366,0.31-66.532c0.652-13.603,1.729-27.207,3.246-40.745c1.24-10.928,2.691-21.856,4.371-32.752
											c1.142-7.323,2.365-14.631,3.719-21.889c0.93-5.089,6.573-18.888,0.604-22.199c-5.529-3.05-16.36,6.867-20.796,9.738
											c-65.293,41.968-133.685,79.173-204.458,111.143c-2.789,1.24-5.693,2.626-7.275,5.22c-1.5,2.463-1.468,5.529-1.387,8.449
											c0.701,23.276,1.435,46.584,2.121,69.86c0.245,9.052,0.293,18.138,0.457,27.19c0.293,23.047,1.354,46.029,9.02,68.163
											L2421.662,2314.774z"/>
										<path style="fill:#D9897D;" d="M2412.626,2246.611c61.705-19.084,120.718-46.503,174.266-82.37
											c14.892-9.966,30.224-20.487,45.116-31.659c0.652-13.604,1.729-27.207,3.246-40.745
											c1.24-10.928,2.691-21.857,4.371-32.752c1.142-7.323,2.365-14.631,3.719-21.889c0.93-5.089,6.573-18.888,0.604-22.199
											c-5.529-3.05-23.641-9.075-28.077-6.205c-65.293,41.968-126.404,95.116-197.177,127.085
											c-2.789,1.24-5.692,2.626-7.275,5.219c-1.5,2.463-1.468,5.53-1.387,8.449c0.701,23.276,1.435,46.584,2.121,69.86
											c0.245,9.053,0.293,18.138,0.457,27.19L2412.626,2246.611z"/>
										<g>
											<path style="fill:#F7A08D;" d="M2360.301,1988.131c-8.922,31.35-41.577,49.504-72.926,40.582
												s-49.52-41.577-40.582-72.926c8.922-31.35,41.576-49.504,72.926-40.582
												C2351.069,1924.127,2369.24,1956.781,2360.301,1988.131z"/>
											<path style="fill:#F7A08D;" d="M2300.031,1786.152c-15.137,65.587-40.573,216.29,32.059,336.298
												c16.408,27.111,43.187,69.977,88.277,76.884c45.617,6.988,84.676-26.705,109.217-47.875
												c65.198-56.241,83.309-129.816,86.287-142.669c17.085-73.744,18.253-223.246-85.457-273.386
												C2461.735,1702.202,2369.532,1723.434,2300.031,1786.152z"/>
											<g>
												<path style="fill:#141414;" d="M2346.012,1925.007c-2.153,8.808-11.042,14.207-19.867,12.037
													c-8.808-2.153-14.207-11.042-12.037-19.867c2.153-8.808,11.042-14.207,19.85-12.037
													c8.808,2.153,14.207,11.042,12.038,19.867H2346.012z"/>
												<path style="fill:#141414;" d="M2484.834,1925.48c-2.153,8.808-11.042,14.207-19.867,12.037
													c-8.808-2.153-14.207-11.042-12.037-19.867c2.153-8.808,11.042-14.207,19.866-12.037
													C2481.605,1907.767,2487.004,1916.656,2484.834,1925.48z"/>
												<polyline style="fill:none;stroke:#895250;stroke-width:6.5244;stroke-miterlimit:10;" points="2381.815,1940.422 
													2352.651,1983.189 2378.585,1998.668 												"/>
											</g>
										</g>
										<path style="fill:#FFFFFF;" d="M2364.215,2070.55l75.764,5.464c0,0-1.125,23.455-39.75,20.911
											c-38.624-2.528-35.999-26.375-35.999-26.375L2364.215,2070.55z"/>
									</g>
									<g>
										<path style="fill:#F7A08D;" d="M2677.792,1985.814c-0.136,2.216-0.426,4.432-0.886,6.665
											c-0.238,1.21-0.545,2.421-0.886,3.631c-3.427,12.001-11.047,21.667-20.815,27.872c-3.853,2.455-8.063,4.364-12.479,5.66
											c-5.097,1.517-10.484,2.199-15.956,1.927c-3.716-0.153-7.467-0.733-11.218-1.807c-25.98-7.416-41.05-34.487-33.651-60.467
											c7.399-25.98,34.487-41.05,60.467-33.651c7.058,2.012,13.314,5.472,18.531,9.99
											C2672.354,1955.504,2678.799,1970.369,2677.792,1985.814z"/>
										<path style="fill:#11153B;" d="M2437.425,1830.469"/>
										
											<ellipse transform="matrix(0.0825 -0.9966 0.9966 0.0825 259.93 3949.2646)" style="fill:#11153B;" cx="2274.774" cy="1833.467" rx="41.225" ry="41.225"/>
										
											<ellipse transform="matrix(0.2298 -0.9732 0.9732 0.2298 5.8648 3687.0864)" style="fill:#11153B;" cx="2332.348" cy="1839.838" rx="34.854" ry="34.854"/>
										
											<ellipse transform="matrix(0.7071 -0.7071 0.7071 0.7071 -577.1464 2174.6575)" style="fill:#11153B;" cx="2336.47" cy="1784.006" rx="34.854" ry="34.854"/>
										
											<ellipse transform="matrix(0.3827 -0.9239 0.9239 0.3827 -151.0862 3395.095)" style="fill:#11153B;" cx="2465.017" cy="1810.606" rx="34.854" ry="34.854"/>
										
											<ellipse transform="matrix(0.2298 -0.9732 0.9732 0.2298 185.8236 3781.0552)" style="fill:#11153B;" cx="2481.695" cy="1773.129" rx="34.854" ry="34.854"/>
										<circle style="fill:#11153B;" cx="2548.849" cy="1824.472" r="34.854"/>
										
											<ellipse transform="matrix(0.2298 -0.9732 0.9732 0.2298 149.2562 3960.1821)" style="fill:#11153B;" cx="2576.582" cy="1885.794" rx="34.854" ry="34.854"/>
										<circle style="fill:#11153B;" cx="2572.085" cy="1926.27" r="34.854"/>
										
											<ellipse transform="matrix(0.3827 -0.9239 0.9239 0.3827 -90.4828 3544.2588)" style="fill:#11153B;" cx="2606.939" cy="1839.838" rx="34.854" ry="34.854"/>
										
											<ellipse transform="matrix(0.2298 -0.9732 0.9732 0.2298 109.963 3637.2488)" style="fill:#11153B;" cx="2352.914" cy="1749.152" rx="34.854" ry="34.854"/>
										<circle style="fill:#11153B;" cx="2244.591" cy="1789.619" r="34.854"/>
										<circle style="fill:#11153B;" cx="2297.494" cy="1789.619" r="34.854"/>
										<circle style="fill:#11153B;" cx="2281.145" cy="1740.898" r="34.854"/>
										<circle style="fill:#11153B;" cx="2332.348" cy="1722.909" r="34.854"/>
										<circle style="fill:#11153B;" cx="2371.324" cy="1693.162" r="34.854"/>
										<circle style="fill:#11153B;" cx="2421.544" cy="1674.573" r="34.854"/>
										
											<ellipse transform="matrix(0.3827 -0.9239 0.9239 0.3827 -5.6625 3297.9285)" style="fill:#11153B;" cx="2465.017" cy="1653.202" rx="34.854" ry="34.854"/>
										
											<ellipse transform="matrix(0.9239 -0.3827 0.3827 0.9239 -435.4045 1090.5103)" style="fill:#11153B;" cx="2523.482" cy="1639.719" rx="34.854" ry="34.854"/>
										<circle style="fill:#11153B;" cx="2562.458" cy="1633.723" r="34.854"/>
										
											<ellipse transform="matrix(0.3827 -0.9239 0.9239 0.3827 42.7369 3422.8496)" style="fill:#11153B;" cx="2582.696" cy="1679.445" rx="34.854" ry="34.854"/>
										
											<ellipse transform="matrix(0.2298 -0.9732 0.9732 0.2298 338.1226 3883.2671)" style="fill:#11153B;" cx="2622.421" cy="1728.015" rx="34.854" ry="34.854"/>
										
											<ellipse transform="matrix(0.7071 -0.7071 0.7071 0.7071 -425.5459 2348.752)" style="fill:#11153B;" cx="2622.421" cy="1688.055" rx="34.854" ry="34.854"/>
										
											<ellipse transform="matrix(0.2298 -0.9732 0.9732 0.2298 351.0359 3941.8577)" style="fill:#11153B;" cx="2665.895" cy="1749.152" rx="34.854" ry="34.854"/>
										
											<ellipse transform="matrix(0.2298 -0.9732 0.9732 0.2298 326.2805 4007.7192)" style="fill:#11153B;" cx="2695.127" cy="1797.723" rx="34.854" ry="34.854"/>
										
											<ellipse transform="matrix(0.2898 -0.9571 0.9571 0.2898 152.7154 3907.6816)" style="fill:#11153B;" cx="2709.368" cy="1850.941" rx="34.854" ry="34.854"/>
										
											<ellipse transform="matrix(0.3827 -0.9239 0.9239 0.3827 -89.2205 3673.2893)" style="fill:#11153B;" cx="2704.122" cy="1903.409" rx="34.854" ry="34.854"/>
										<path style="fill:#11153B;" d="M2726.975,1961.13c0,19.246-15.599,34.845-34.845,34.845c-2.54,0-5.012-0.273-7.398-0.801
											c-2.745-0.58-5.37-1.5-7.825-2.694c0.46-2.233,0.75-4.449,0.886-6.665c1.006-15.445-5.438-30.31-16.894-40.181
											c5.693-11.49,17.542-19.366,31.23-19.366C2711.376,1926.268,2726.975,1941.866,2726.975,1961.13z"/>
										<path style="fill:#11153B;" d="M2687.254,2006.851c0,12.069-7.603,22.366-18.292,26.338
											c-3.052,1.142-6.376,1.773-9.819,1.773c-6.137,0-11.797-1.977-16.417-5.319c4.416-1.296,8.626-3.205,12.479-5.66
											c9.768-6.205,17.388-15.871,20.815-27.872c0.341-1.21,0.648-2.421,0.886-3.631c0.46-2.233,0.75-4.449,0.886-6.665
											c2.915,2.591,5.285,5.762,6.939,9.359C2686.35,1998.719,2687.254,2002.674,2687.254,2006.851z"/>
										<path style="fill:#11153B;" d="M2675.27,2050.918c0,15.53-12.598,28.111-28.111,28.111
											c-15.53,0-28.111-12.581-28.111-28.111c0-7.501,2.949-14.32,7.722-19.349c5.472,0.273,10.859-0.409,15.956-1.927
											c4.416-1.296,8.626-3.205,12.479-5.66c5.472,1.62,10.246,4.876,13.757,9.206
											C2672.9,2038.013,2675.27,2044.202,2675.27,2050.918z"/>
										<circle style="fill:#11153B;" cx="2376.712" cy="1804.984" r="28.108"/>
										<circle style="fill:#11153B;" cx="2417.936" cy="1804.984" r="28.108"/>
										<circle style="fill:#11153B;" cx="2516.806" cy="1773.129" r="28.108"/>
										<path style="fill:#11153B;" d="M2523.482,1653.202l-101.938,21.371l-135.527,74.58l-29.232,69.707l114.54-2.773
											l69.098-5.481l54.717-33.729l32.465,3.373l21.245,44.223l23.236,73.455v28.342l45.465,11.993
											c3.35-1.309,16.134-5.847,30.765-0.493c18.959,6.938,25.397,24.77,26.231,27.208
											c11.608-17.853,23.216-35.705,34.823-53.558v-86.947l-52.093-72.706l-89.43-93.459L2523.482,1653.202z"/>
									</g>
								</g>
							</g>
						</g>
					</g>
				</g>
			</g>
		</g>
		<g>
			<path style="fill:#3F4478;" d="M2335.858,1676.026c-4.281,1.167-9.392,3.076-14.684,6.29
				c-14.961,9.085-21.729,22.748-24.348,29.047c13.011-8.12,26.021-16.24,39.032-24.359l64.288-17.277L2335.858,1676.026z"/>
			<g>
				<path style="fill:#3F4478;" d="M2324.14,1687.744c0,0,136.303-7.52,218.327,60.589c82.024,68.109,66.644,261.451,66.644,261.451
					l41.012-2.981c0,0,27.211-183.976-67.377-265.061s-199.933-71.283-199.933-71.283L2324.14,1687.744z"/>
				<path style="fill:#6163AD;" d="M2335.858,1676.026c0,0,136.303-7.52,218.327,60.589
					c82.024,68.109,66.644,261.451,66.644,261.451l41.012-2.981c0,0,27.211-195.694-67.377-276.779s-199.933-59.565-199.933-59.565
					L2335.858,1676.026z"/>
			</g>
			<ellipse style="fill:#103644;" cx="2654.837" cy="1998.066" rx="75.878" ry="90.769"/>
			<ellipse style="fill:#3F4478;" cx="2659.667" cy="1996.601" rx="67.034" ry="80.189"/>
			<ellipse style="fill:#6163AD;" cx="2683.103" cy="1996.601" rx="67.034" ry="80.189"/>
			<ellipse style="fill:#3F4478;" cx="2692.188" cy="1996.601" rx="37.35" ry="44.68"/>
			<path style="fill:none;stroke:#092A33;stroke-width:5.9002;stroke-linecap:round;stroke-miterlimit:10;" d="M2695.792,1994.437
				c-29.317,36.262-77.239,85.35-148.531,123.135c-28.232,14.963-55.177,25.528-79.268,33.092"/>
		</g>
	</g>
	<g>
		<path style="fill:#DAD9ED;" d="M2795.066,3232.31H1794.977c-25.049,0-45.544,20.495-45.544,45.544l0,0
			c0,25.049,20.495,45.544,45.544,45.544H2807.07c18.523,0,33.539-15.016,33.539-33.539v-12.005
			C2840.61,3252.805,2820.115,3232.31,2795.066,3232.31z"/>
		<g>
			<path style="fill:#DAD9ED;" d="M2287.193,3323.398h-974.546c-26.466,0-49.328-18.509-54.836-44.396l-173.573-815.792
				c-7.421-34.879,19.177-67.731,54.836-67.731H2144.14c27.227,0,50.518,19.562,55.221,46.38l143.053,815.792
				C2348.431,3291.963,2322.029,3323.398,2287.193,3323.398z"/>
			<path style="fill:#393B50;" d="M2250.788,3323.398H1275.62c-26.32,0-49.054-18.406-54.531-44.15l-173.705-816.415
				c-7.38-34.685,19.07-67.354,54.531-67.354h1005.711c27.076,0,50.238,19.453,54.914,46.123l143.162,816.415
				C2311.686,3292.138,2285.43,3323.398,2250.788,3323.398z"/>
		</g>
	</g>
	<g>
		<path style="fill:#6163AD;" d="M2809.141,1625.196c0-82.87,67.18-150.05,150.05-150.05h386.695
			c82.871,0,150.05,67.18,150.05,150.05v233.276c0,82.871-67.179,150.05-150.05,150.05h-377.617l-119.385,103.012v-151.587
			c-24.598-26.725-39.743-62.287-39.743-101.474V1625.196z"/>
		<path style="fill:#FFFFFF;" d="M3363.781,1649.587h-415.698c-14.589,0-26.525-11.936-26.525-26.525l0,0
			c0-14.589,11.936-26.525,26.525-26.525h415.698c14.589,0,26.525,11.936,26.525,26.525l0,0
			C3390.307,1637.651,3378.37,1649.587,3363.781,1649.587z"/>
		<path style="fill:#FFFFFF;" d="M3363.781,1769.118h-415.698c-14.589,0-26.525-11.936-26.525-26.525v0
			c0-14.589,11.936-26.525,26.525-26.525h415.698c14.589,0,26.525,11.936,26.525,26.525v0
			C3390.307,1757.181,3378.37,1769.118,3363.781,1769.118z"/>
		<path style="fill:#FFFFFF;" d="M3363.781,1888.082h-415.698c-14.589,0-26.525-11.936-26.525-26.525l0,0
			c0-14.589,11.936-26.525,26.525-26.525h415.698c14.589,0,26.525,11.936,26.525,26.525l0,0
			C3390.307,1876.145,3378.37,1888.082,3363.781,1888.082z"/>
	</g>
	<polygon style="fill:#6163AD;" points="507.064,944.353 1119.797,860.337 653.29,1054.645 	"/>
	<polygon style="fill:#6163AD;" points="1119.797,860.337 857.568,1208.66 714.561,1100.861 	"/>
	<polygon style="fill:#2F3E56;" points="658.74,1259.891 653.183,1054.652 1119.823,860.285 713.965,1101.181 	"/>
	<polygon style="fill:#4C5085;" points="658.74,1259.891 786.961,1155.342 714.442,1100.762 	"/>
	<g>
		<g>
			<g>
				<path style="fill:#F79F8C;" d="M2519.798,3154.704l-98.249-26.361l-69.431-29.644l-54.407-133.231
					c22.45-22.169,56.944-26.836,84.525-11.436l101.708,56.784l45.238,12.459L2519.798,3154.704z"/>
			</g>
			<g>
				<g>
					<path style="fill:#F79F8C;" d="M2322.399,3036.227l-15.962-52.862l-12.16,2.103l-132.644,41.172
						c-7.19,2.24-10.391,10.578-6.532,17.019l3.955,6.601c5.836,9.742,20.544,16.697,31.699,14.365L2322.399,3036.227z"/>
				</g>
				<g>
					<path style="fill:#F79F8C;" d="M2320.246,3031.265l-101.205,47.798c-4.571,2.16-6.322,7.735-3.802,12.101
						c5.758,9.964,18.774,15.71,29.852,12.468l91.538-28.113L2320.246,3031.265z"/>
				</g>
				<g>
					<polygon style="fill:#F79F8C;" points="2301.332,2994.135 2303.268,3001.769 2303.321,3001.765 					"/>
				</g>
				<g>
					<path style="fill:#F79F8C;" d="M2169.434,2974.267c-9.804,2.281-14.288,13.612-8.679,21.934l0.528,0.788
						c7.486,11.107,20.765,16.893,34.044,14.822l107.941-10.042l-1.936-7.635l1.989,7.63l-0.052,0.004l28.345,111.749
						c0,0,14.137-5.989,28.912-13.427l-23.167-153.756L2169.434,2974.267z"/>
				</g>
				<g>
					<path style="fill:#F79F8C;" d="M2335.431,3073.969l-55.915,28.229c-7.32,3.888-7.806,14.781-1.897,20.585
						c5.673,5.576,14.153,7.231,21.523,4.201l66.616-27.377l-0.996-8.541L2335.431,3073.969z"/>
				</g>
			</g>
		</g>
		<g>
			<path style="fill:#F79F8C;" d="M2927.223,3076.525c-51.198,22.804-73.843,83.281-50.805,135.143
				c22.942,51.705,82.99,75.168,134.134,52.347c50.996-22.817,73.681-83.333,50.719-135.084
				C3038.256,3077.084,2978.218,3053.708,2927.223,3076.525z"/>
			<path style="fill:#F79F8C;" d="M2475.986,3138.29l18.945-123.234c251.302,17.719,306.352,36.515,490.267,54.29l-25.394,202.835
				c-80.18-3.23-319.509-53.131-483.81-133.903L2475.986,3138.29z"/>
		</g>
	</g>
	<g id="Artwork_2_00000149364496855871706450000001387652612199890820_">
		<g>
			<g>
				<g>
					<g>
						<path style="fill:#6163AD;" d="M629.502,3007.41c5.181,5.16,10.012,9.145,15.043,11.309c4.37-4.903,6.298-12.049,7.526-21.046
							c2.739-20.043,4.31-39.961,1.653-60.118c-3.445-26.087-8.942-51.916-16.577-77.098
							c-20.355-67.114-61.029-134.388-73.398-129.998c-6.903,2.449-3.417,26.624-8.012,27.04
							c-3.267,0.294-8.265-11.652-13.464-24.362c-3.283-3.166-6.519-5.435-9.107-4.603c-13.105,4.21-4.215,86.145,21.507,155.024
							c9.65,25.843,21.491,50.87,35.214,74.798C600.487,2976.845,614.469,2992.449,629.502,3007.41z"/>
					</g>
					<g>
						<path style="fill:#6163AD;" d="M269.485,2770.445c0.81,2.134,1.75,4.388,3.667,5.633c2.601,1.693,5.729,1.175,7.249,0.902
							c9.656-1.716,14.484-2.574,19.825-4.177c17.133-5.129,39.451,11.314,38.457,14.497c-0.277,0.891-2.29,0.418-9.926,0.56
							c0,0-22.331,0.407-37.492,8.444c-1.348,0.715-3.672,2.063-4.547,4.581c-0.925,2.68,0.397,5.568,1.709,8.088
							c9.306,17.877,19.666,35.211,31.001,51.876c1.877,2.758,3.996,5.66,7.154,6.711c4.785,1.59,9.217-1.362,12.167-2.579
							c15.461-6.358,41.513,12.641,39.774,18.544c-1.368,4.634-18.772-2.327-24.99,5.75c-9.871,12.834,19.119,49.753,27.906,60.94
							c18.998,24.202,33.561,31.963,49.073,40.261c17.57,9.396,31.344-19.662,41.724-14.113c7.333,3.917,3.004,14.808,8.172,26.584
							c12.298,27.997,63.077,27.168,144.667,23.322c6.148-0.292,10.863-1.503,14.5-3.565c-2.574-1.387-5.021-3.104-7.368-5.018
							c0,0-3.595-2.838-6.773-6.192c-7.957-8.398-14.193-53.562-14.193-53.562c-4.532-32.827-35.363-28.149-61.968-72.359
							c-9.258-15.385-10.811-4.98-24.375-94.118c-2.696-17.716-6.297-49.344-0.107-62.124c1.587-3.268,3.808-5.383,6.612-6.281
							c0.321-0.101,0.655-0.192,0.988-0.26c2.021-0.411,3.965-0.159,5.852,0.563c-1.483-3.508-2.949-6.843-4.365-9.735
							c-0.449-0.908-1.346-2.748-2.82-4.994c-1.982-3.012-4.692-6.224-9.215-10.43c-18.002-16.727-39.357-29.333-60.531-41.8
							c-11.285-6.647-22.564-13.29-33.849-19.936c-1.355-0.795-2.743-1.606-4.284-1.904c-4.293-0.82-8.445,2.728-9.864,6.854
							c-1.887,5.492,1.542,8.569-0.173,12.973c-1.991,5.125-9.977,7.801-15.471,7.695c-16.903-0.332-17.426-27.137-41.381-40.155
							c-11.373-6.182-22.554-7.313-44.845-6.303c-12.443,0.56-24.849,1.818-37.178,3.566c-8.171,1.155-24.924,0.781-31.138,7.14
							c-6.126,6.271-1.823,19.199-0.71,26.638C248.389,2692.861,254.991,2732.514,269.485,2770.445z"/>
					</g>
					<path style="fill:#092A18;" d="M303.076,2718.689c19.09,0.781,38.194,0.946,57.296,0.71
						c-24.376-18.56-49.277-36.428-74.553-53.744c-3.645-2.497,0.876-7.666,4.482-5.196c26.214,17.958,52.021,36.55,77.267,55.862
						c0.217-9.137-3.116-18.578-5.226-27.216c-2.904-11.895-5.809-23.791-8.713-35.687c-1.038-4.254,5.441-6.519,6.49-2.224
						c3.133,12.828,6.265,25.657,9.396,38.485c2.493,10.21,6.077,20.993,4.493,31.597c27.604,21.348,54.454,43.651,80.276,67.131
						c-2.965-25.626-7.778-50.978-14.613-75.865c-1.164-4.237,5.318-6.491,6.49-2.224c7.61,27.708,12.909,56.001,15.822,84.587
						c0.018,0.181-0.067,0.324-0.078,0.495c2.198,2.035,4.438,4.021,6.62,6.074c15.797,14.864,31.152,30.226,46.001,46.062
						c0.791-0.01,1.581-0.015,2.371-0.03c0.339-23.728,0.678-47.456,1.018-71.184c0.062-4.382,6.913-4.85,6.849-0.419
						c-0.356,24.926-0.712,49.853-1.068,74.779c-0.024,1.702-1.141,3.34-2.924,3.561c18.05,19.617,35.28,39.983,51.515,61.11
						c0.169-2.164,0.159-4.814,0.234-5.562c0.5-4.983,0.954-9.971,1.362-14.962c0.964-11.827,1.649-23.677,2.073-35.535
						c0.794-22.169,0.635-44.359-0.386-66.517c-0.203-4.402,6.645-4.846,6.849-0.419c1.728,37.471,0.896,75.026-2.554,112.38
						c-0.427,4.625-0.812,9.273-1.405,13.881c-0.171,1.327-0.399,2.586-0.903,3.676c10.917,14.516,21.367,29.382,31.274,44.619
						c0.074-0.155,0.156-0.287,0.227-0.455c1.102-2.594,1.482-5.794,2.182-8.529c1.455-5.686,2.909-11.372,4.363-17.057
						c3.091-12.082,6.182-24.165,9.273-36.247c1.09-4.26,7.826-2.939,6.727,1.355c-3.545,13.859-7.09,27.718-10.635,41.577
						c-1.727,6.747-3.31,13.549-5.182,20.256c-0.62,2.222-1.4,4.234-2.622,5.861c0.761,1.199,1.543,2.385,2.299,3.589
						c22.831,36.39,42.491,74.758,58.237,114.738c1.619,4.111-4.876,6.327-6.49,2.225c-16.103-40.887-36.398-79.912-59.91-116.936
						c-5.099,1.308-11.054,1.044-16.226,1.225c-6.277,0.22-12.561,0.232-18.839,0.035c-12.859-0.405-25.668-1.682-38.365-3.746
						c-4.359-0.709-3.007-7.436,1.355-6.727c21.905,3.561,44.181,4.69,66.322,2.998c0.585-0.045,1.122-0.109,1.638-0.186
						c-10.029-15.449-20.622-30.538-31.704-45.261c-1.73-0.029-3.5-0.406-5.146-0.679c-5.053-0.84-10.101-1.705-15.145-2.594
						c-19.096-3.366-38.129-7.084-57.087-11.152c-21.464-4.605-42.824-9.673-64.08-15.155c-4.258-1.098-2.937-7.834,1.355-6.727
						c43.93,11.331,88.325,20.824,133.064,28.358c0.324,0.055,0.742,0.155,1.192,0.267c-5-6.486-10.076-12.913-15.259-19.25
						c-12.425-15.193-25.38-29.925-38.753-44.268c-28.208,0.166-56.372-2.199-84.16-7.131c-4.348-0.772-3-7.5,1.355-6.727
						c25.207,4.473,50.684,6.791,76.249,6.995c-16.259-17.1-33.082-33.662-50.458-49.639c-28.098-4.577-55.597-12.177-82.075-22.649
						c-4.112-1.627-1.07-7.778,3.017-6.162c22.479,8.89,45.729,15.585,69.442,20.138c-18.423-16.565-37.317-32.609-56.649-48.073
						c-6.33-5.064-12.741-10.023-19.154-14.98c-21.901,0.441-43.807,0.233-65.694-0.661
						C299.131,2725.361,298.654,2718.509,303.076,2718.689z"/>
				</g>
				<g>
					<g>
						<path style="fill:#6163AD;" d="M700.481,2996.484c-4.05,6.089-7.99,10.957-12.489,14.079
							c-5.259-3.935-8.572-10.553-11.567-19.125c-6.677-19.096-12.184-38.302-13.595-58.584c-1.82-26.251-1.578-52.657,0.887-78.856
							c6.579-69.823,33.036-143.851,46.032-142.013c7.253,1.025,8.652,25.409,13.238,24.903c3.26-0.363,5.778-13.065,8.341-26.556
							c2.586-3.756,5.305-6.625,8.007-6.325c13.681,1.515,21.291,83.579,9.804,156.201c-4.309,27.247-10.928,54.132-19.609,80.313
							C722.826,2960.752,712.232,2978.828,700.481,2996.484z"/>
					</g>
					<g>
						<path style="fill:#6163AD;" d="M1006.081,2692.555c-0.368,2.252-0.841,4.649-2.471,6.25c-2.212,2.178-5.38,2.293-6.924,2.327
							c-9.805,0.242-14.707,0.363-20.26-0.144c-17.812-1.613-36.406,18.946-34.799,21.867c0.449,0.818,2.327-0.046,9.839-1.429
							c0,0,21.965-4.05,38.422,0.806c1.463,0.432,4.009,1.291,5.369,3.583c1.44,2.442,0.72,5.536-0.063,8.266
							c-5.559,19.373-12.258,38.423-20.046,57.012c-1.29,3.076-2.788,6.342-5.674,8.001c-4.372,2.511-9.303,0.501-12.437-0.104
							c-16.417-3.151-38.163,20.657-35.283,26.095c2.264,4.269,17.932-6.02,25.634,0.657c12.229,10.611-8.825,52.564-15.208,65.278
							c-13.796,27.501-26.521,38.008-40.07,49.229c-15.346,12.708-34.632-13.024-43.699-5.519c-6.406,5.3,0.006,15.11-2.713,27.679
							c-6.475,29.885-56.401,39.189-137.123,51.672c-6.083,0.939-10.945,0.691-14.92-0.605c4.493-3.744,8.22-8.681,11.625-13.802
							c10.553-15.864,22.339-35.081,29.718-57.346c8.871-26.752,15.542-54.08,19.833-81.223c4.816-30.438,6.688-65.825,5.138-97.087
							c-0.887-17.898-3.658-49.609-12.27-60.9c-2.206-2.886-4.804-4.516-7.731-4.839c-0.334-0.034-0.68-0.058-1.02-0.058
							c-2.062,0-3.917,0.634-5.622,1.717c0.755-3.733,1.526-7.293,2.339-10.409c0.259-0.979,0.772-2.961,1.768-5.455
							c1.342-3.347,3.358-7.034,6.953-12.057c14.309-19.978,32.725-36.585,50.992-53.02c9.735-8.762,19.464-17.518,29.2-26.279
							c1.169-1.049,2.368-2.12,3.819-2.719c4.044-1.659,8.819,0.991,11.031,4.752c2.943,5.006,0.196,8.704,2.754,12.679
							c2.972,4.626,11.331,5.657,16.694,4.459c16.498-3.692,11.671-30.064,32.553-47.593c9.914-8.324,20.645-11.659,42.691-15.11
							c12.305-1.93,24.713-3.168,37.144-3.912c8.238-0.495,24.58-4.199,31.936,0.795c7.253,4.925,5.611,18.451,6.002,25.963
							C1011.3,2612.323,1012.728,2652.496,1006.081,2692.555z"/>
					</g>
					<path style="fill:#092A18;" d="M962.854,2648.527c-18.552,4.568-37.24,8.535-56.006,12.109
						c20.191-23.043,41.033-45.513,62.353-67.517c3.074-3.173-2.386-7.338-5.427-4.199c-22.111,22.82-43.698,46.179-64.591,70.134
						c-2.033-8.911-0.647-18.827-0.301-27.712c0.477-12.236,0.953-24.471,1.43-36.707c0.17-4.376-6.631-5.305-6.803-0.887
						c-0.514,13.195-1.028,26.391-1.542,39.586c-0.409,10.502-1.773,21.783,1.891,31.859
						c-22.799,26.419-44.668,53.623-65.296,81.776c-2.199-25.703-2.532-51.505-0.792-77.255c0.297-4.384-6.505-5.302-6.803-0.887
						c-1.939,28.668-1.496,57.45,1.344,86.043c0.018,0.181,0.131,0.303,0.175,0.47c-1.748,2.432-3.548,4.824-5.277,7.271
						c-12.52,17.713-24.507,35.826-35.904,54.302c-0.777,0.148-1.552,0.3-2.329,0.443c-5.059-23.185-10.118-46.37-15.177-69.554
						c-0.934-4.282-7.74-3.375-6.796,0.954c5.314,24.355,10.628,48.712,15.943,73.068c0.363,1.663,1.784,3.046,3.575,2.907
						c-13.78,22.82-26.609,46.209-38.31,70.147c-0.597-2.087-1.115-4.686-1.338-5.403c-1.483-4.783-2.921-9.581-4.315-14.391
						c-3.301-11.398-6.333-22.873-9.11-34.41c-5.194-21.567-9.459-43.343-12.872-65.261c-0.677-4.354-7.477-3.425-6.796,0.953
						c5.77,37.064,14.067,73.701,24.888,109.619c1.34,4.448,2.643,8.925,4.142,13.323c0.432,1.267,0.906,2.454,1.617,3.422
						c-7.807,16.4-15.086,33.05-21.76,49.954c-0.104-0.137-0.21-0.25-0.313-0.4c-1.596-2.323-2.607-5.383-3.837-7.923
						c-2.558-5.282-5.116-10.564-7.673-15.847c-5.435-11.224-10.871-22.449-16.307-33.673c-1.916-3.958-8.254-1.321-6.322,2.668
						c6.235,12.875,12.469,25.75,18.704,38.625c3.036,6.268,5.942,12.618,9.113,18.818c1.05,2.053,2.215,3.871,3.737,5.221
						c-0.507,1.327-1.037,2.644-1.538,3.974c-15.125,40.209-26.748,81.724-34.214,124.039c-0.768,4.351,6.038,5.229,6.803,0.887
						c7.636-43.275,19.75-85.561,35.416-126.526c5.257,0.266,11.041-1.179,16.145-2.031c6.195-1.035,12.356-2.274,18.469-3.719
						c12.521-2.958,24.818-6.761,36.85-11.313c4.131-1.563,1.465-7.886-2.668-6.323c-20.757,7.853-42.362,13.397-64.395,16.149
						c-0.582,0.073-1.121,0.117-1.642,0.144c6.751-17.137,14.125-34.033,22.053-50.669c1.689-0.373,3.349-1.095,4.908-1.691
						c4.784-1.83,9.559-3.683,14.325-5.559c18.042-7.102,35.953-14.537,53.721-22.3c20.116-8.788,40.039-18.009,59.777-27.616
						c3.954-1.924,1.317-8.262-2.668-6.322c-40.793,19.854-82.407,38-124.748,54.295c-0.307,0.118-0.697,0.3-1.116,0.499
						c3.608-7.352,7.302-14.661,11.119-21.904c9.15-17.363,18.911-34.381,29.158-51.1c27.676-5.457,54.804-13.384,81.053-23.752
						c4.107-1.622,1.446-7.947-2.668-6.322c-23.81,9.405-48.316,16.751-73.328,22.043c12.526-19.996,25.714-39.577,39.559-58.695
						c26.623-10.083,52.057-23.008,75.919-38.544c3.705-2.413-0.501-7.836-4.184-5.438c-20.257,13.189-41.709,24.382-64.039,33.567
						c14.754-19.903,30.074-39.389,45.938-58.393c5.195-6.224,10.489-12.361,15.786-18.496c21.55-3.931,42.975-8.497,64.246-13.734
						C968.048,2654.279,967.151,2647.469,962.854,2648.527z"/>
				</g>
				<g>
					<path style="fill:#092A18;" d="M604.049,3088.463c0,0-19.351,5.361-63.555-29.54c-22.746-17.959-69.577,16.829-82.956,46.934
						c-13.38,30.105-40.14,28.098-58.203,22.746c-18.063-5.352-31.444-4.014-47.499,28.767
						c-16.056,32.781-43.485,65.563-72.252,50.844c-28.767-14.719-15.387-46.161-20.07-72.252
						c-4.683-26.091-12.042-45.164,18.732-63.057c30.774-17.893,46.043-23.914,45.768-44.653
						c-0.275-20.739,10.134-45.299,50.569-48.837c53.521-4.683,156.122-89.765,243.518,105.702L604.049,3088.463z"/>
					<path style="fill:#6163AD;" d="M549.628,3046.31c-26.391-1.992-23.708-21.841-49.895-28.382
						c-31.925-7.975-54.173,16.929-65.626,40.995c-11.453,24.066-31.37,34.691-56.267,34.217
						c-24.897-0.475-32.366,21.886-35.851,41.803c-3.485,19.917-3.984,53.775-24.944,68.335
						c13.892-10.173,26.034-28.031,34.79-45.906c16.056-32.781,29.436-34.119,47.499-28.767
						c18.063,5.352,44.823,7.359,58.203-22.746c13.38-30.105,60.21-64.894,82.956-46.935c44.205,34.901,63.555,29.541,63.555,29.541
						l14.049-3.345C608.393,3067.66,576.019,3048.301,549.628,3046.31z"/>
					<g>
						<path style="fill:#6163AD;" d="M289.641,3184.326c-0.093,0-0.186-0.009-0.282-0.022c-0.972-0.155-1.636-1.07-1.483-2.042
							c13.15-82.848,50.983-132.495,112.45-147.56c74.761-18.332,166.939,16.698,197.526,41.466c0.766,0.617,0.883,1.74,0.264,2.508
							c-0.62,0.763-1.745,0.887-2.51,0.262c-24.677-19.974-115.668-60.082-194.432-40.774
							c-59.938,14.692-96.87,63.362-109.773,144.657C291.261,3183.7,290.502,3184.326,289.641,3184.326z"/>
					</g>
				</g>
				<path style="fill:#092A18;" d="M704.944,3045.268c-22.647,22.403-22.647,22.403-22.647,22.403h140.729l23.094-28.146
					L704.944,3045.268z"/>
				
					<line style="fill:none;stroke:#00253E;stroke-width:4.5452;stroke-linecap:round;stroke-linejoin:round;stroke-miterlimit:10;" x1="530.703" y1="3107.789" x2="816.04" y2="3107.789"/>
				<path style="fill:#6163AD;" d="M704.944,3045.268c0,0,66.195-61.842,125.554-57.093
					c48.279-77.562,158.994,10.289,163.786,41.155c79.189,26.118,71.275,152.75,71.275,152.75s-115.552-36.196-137.713-74.291
					c-58.112,0.686-110.803-42.626-118.718-62.521C780.636,3053.865,704.944,3045.268,704.944,3045.268z"/>
				<g>
					<g>
						<path style="fill:#092A18;" d="M754.831,2861.107c-4.292,27.144-10.962,54.471-19.833,81.223
							c-7.379,22.264-19.165,41.481-29.718,57.346c-3.405,5.121-7.132,10.058-11.625,13.802c-2.12-0.686-3.992-1.665-5.663-2.915
							c4.499-3.122,8.439-7.99,12.489-14.079c11.751-17.656,22.345-35.732,29.05-55.963c8.681-26.181,15.3-53.066,19.609-80.313
							c11.486-72.622,3.877-154.687-9.804-156.201c-2.702-0.3-5.421,2.569-8.007,6.325c0.657-3.479,1.319-7.005,1.999-10.392
							c1.705-1.083,3.56-1.717,5.622-1.717c0.34,0,0.685,0.023,1.02,0.058c2.926,0.323,5.524,1.953,7.731,4.839
							c8.612,11.291,11.383,43.002,12.27,60.9C761.519,2795.281,759.647,2830.668,754.831,2861.107z"/>
					</g>
					<g>
						<path style="fill:#DAD9ED;" d="M749.14,2860.208c-4.309,27.247-10.928,54.132-19.609,80.313
							c-6.705,20.231-17.299,38.307-29.05,55.963c-4.05,6.089-7.99,10.957-12.489,14.079c-6.705,4.66-14.649,5.432-26.049,0.559
							c-78.729-33.676-127.013-56.113-125.815-88.153c0.507-13.474,9.568-21.769,4.441-28.82
							c-7.252-9.977-33.538,11.141-45.813-5.755c-10.847-14.926-21.032-28.912-27.892-60.422
							c-3.168-14.574-13.635-62.663,1.544-70.255c9.557-4.781,22.794,9.747,26.199,6.002c4.343-4.775-11.55-34.609-29.044-35.68
							c-3.335-0.202-8.871,0.559-12.656-3.128c-2.5-2.437-3.168-6.146-3.681-9.603c-3.07-20.911-4.919-41.994-5.53-63.118
							c-0.086-2.978-0.012-6.308,2.091-8.41c1.976-1.976,4.787-2.183,6.377-2.241c17.978-0.651,39.241,9.176,39.241,9.176
							c7.264,3.359,8.946,4.718,9.614,4.009c2.391-2.546-11.141-28.267-29.655-31.262c-5.766-0.933-10.715-2.327-20.611-5.121
							c-1.555-0.444-4.741-1.377-6.429-4.171c-1.233-2.045-1.089-4.603-0.881-6.988c3.675-42.415,15.57-82.842,28.18-123.211
							c2.35-7.529,4.205-21.688,12.852-24.805c8.773-3.157,24.407,4.856,32.639,7.5c12.437,3.992,24.713,8.474,36.712,13.635
							c21.487,9.24,31.522,15.415,39.425,26.447c16.648,23.238,4.879,48.768,20.674,56.804c5.138,2.615,13.894,3.739,18.117-0.178
							c3.635-3.376,1.803-7.846,6.095-12.16c3.226-3.249,8.767-4.695,12.437-1.958c1.319,0.985,2.258,2.385,3.174,3.756
							c7.604,11.429,15.214,22.852,22.817,34.281c14.275,21.44,28.664,43.1,37.996,67.11c2.345,6.037,3.433,10.311,3.923,14.056
							c0.363,2.794,0.369,4.942,0.374,6.002c0.069,18.301-4.401,49.517,0.559,51.389c2.921,1.106,7.195-8.675,11.913-15.519
							c2.586-3.756,5.305-6.625,8.007-6.325C753.016,2705.521,760.626,2787.586,749.14,2860.208z"/>
					</g>
					<path style="fill:#014F28;" d="M498.798,2573.716c17.653,9.465,35.6,18.356,53.729,26.868
						c-14.511-28.655-29.833-56.897-45.761-84.79c-2.297-4.022,4.332-6.832,6.604-2.853c16.519,28.928,32.365,58.267,47.353,88.03
						c4.383-8.521,5.555-18.952,7.514-28.066c2.699-12.55,5.398-25.101,8.097-37.651c0.966-4.489,8.114-3.663,7.14,0.869
						c-2.91,13.534-5.821,27.07-8.732,40.604c-2.317,10.772-3.866,22.583-10.209,31.863c16.281,32.762,31.415,66.079,45.04,100.037
						c8.919-25.531,15.971-51.649,20.902-78.253c0.839-4.53,7.985-3.692,7.14,0.869c-5.489,29.619-13.426,58.734-23.749,87.034
						c-0.066,0.179-0.212,0.275-0.3,0.432c1.143,2.925,2.348,5.823,3.468,8.757c8.107,21.246,15.569,42.76,22.337,64.489
						c0.75,0.352,1.499,0.708,2.25,1.056c11.169-22.23,22.338-44.46,33.508-66.69c2.062-4.106,8.739-1.415,6.653,2.736
						c-11.733,23.353-23.466,46.706-35.199,70.059c-0.801,1.594-2.604,2.629-4.387,2.022c8.059,26.76,15.002,53.851,20.659,81.206
						c1.149-1.964,2.351-4.469,2.764-5.139c2.75-4.472,5.459-8.97,8.126-13.493c6.317-10.717,12.382-21.582,18.204-32.576
						c10.885-20.552,20.882-41.558,30.05-62.93c1.821-4.246,8.485-1.533,6.654,2.736c-15.503,36.141-33.459,71.19-53.793,104.853
						c-2.518,4.168-5.006,8.377-7.672,12.453c-0.768,1.174-1.559,2.257-2.532,3.055c3.662,18.686,6.724,37.489,9.103,56.394
						c0.141-0.113,0.278-0.2,0.422-0.325c2.226-1.943,4.047-4.788,5.958-7.049c3.972-4.698,7.944-9.398,11.915-14.097
						c8.44-9.985,16.881-19.971,25.321-29.956c2.976-3.521,8.727,0.805,5.727,4.354c-9.681,11.454-19.362,22.908-29.044,34.362
						c-4.714,5.576-9.317,11.269-14.15,16.74c-1.601,1.812-3.256,3.355-5.154,4.33c0.17,1.479,0.366,2.956,0.528,4.437
						c4.9,44.77,5.905,89.956,2.48,134.872c-0.353,4.619-7.492,3.74-7.14-0.869c3.503-45.936,2.2-92.032-3.053-137.711
						c-5.409-1.097-10.906-4.07-15.868-6.263c-6.022-2.662-11.957-5.524-17.789-8.581c-11.946-6.262-23.446-13.323-34.481-21.075
						c-3.788-2.662,0.563-8.39,4.354-5.727c19.037,13.375,39.536,24.626,61.198,33.152c0.572,0.225,1.108,0.41,1.63,0.573
						c-2.398-19.161-5.492-38.238-9.215-57.196c-1.618-0.818-3.116-1.983-4.545-2.994c-4.383-3.103-8.75-6.227-13.102-9.372
						c-16.476-11.906-32.732-24.117-48.757-36.623c-18.144-14.158-35.978-28.706-53.524-43.597
						c-3.515-2.983,0.811-8.733,4.354-5.726c36.264,30.776,73.805,60.03,112.568,87.594c0.281,0.2,0.63,0.486,1.003,0.797
						c-1.752-8.405-3.602-16.789-5.594-25.138c-4.776-20.014-10.261-39.837-16.319-59.482
						c-26.688-12.741-52.177-27.849-76.137-45.208c-3.749-2.716,0.599-8.447,4.354-5.727c21.735,15.746,44.711,29.582,68.736,41.462
						c-7.52-23.566-15.819-46.883-24.906-69.901c-24.415-17.166-46.883-36.909-67.075-58.895c-3.135-3.415,2.547-7.827,5.663-4.434
						c17.142,18.665,36.016,35.613,56.305,50.75c-9.807-24.051-20.296-47.826-31.464-71.254c-3.657-7.672-7.437-15.282-11.221-22.89
						c-20.863-9.598-41.435-19.81-61.674-30.661C492.026,2578.207,494.709,2571.523,498.798,2573.716z"/>
				</g>
			</g>
			<g>
				<g>
					<g>
						<path style="fill:#DAD9ED;" d="M831.427,3137.49H502.842c-1.696,0-3.071-1.375-3.071-3.071v-73.97
							c0-1.697,1.375-3.072,3.071-3.072h328.586c1.696,0,3.071,1.375,3.071,3.072v73.97
							C834.499,3136.115,833.124,3137.49,831.427,3137.49z"/>
					</g>
					<g>
						<path style="fill:#393B50;" d="M736.125,3325.123h-137.98c-9.86,0-18.491-6.622-21.043-16.146l-45.956-171.487h271.978
							l-45.957,171.487C754.615,3318.501,745.984,3325.123,736.125,3325.123z"/>
					</g>
				</g>
			</g>
		</g>
	</g>
	<g>
		<g>
			<g>
				<circle style="fill:#383A4F;" cx="3489.875" cy="1536.917" r="272.34"/>
				
					<ellipse transform="matrix(0.7071 -0.7071 0.7071 0.7071 -62.9009 2929.3108)" style="fill:#073028;" cx="3504.54" cy="1540.583" rx="250.355" ry="250.355"/>
				<circle style="fill:#FFFFFF;" cx="3489.875" cy="1536.917" r="250.355"/>
			</g>
		</g>
		<g>
			<g>
				
					<line style="fill:none;stroke:#0A5244;stroke-width:1.7423;stroke-miterlimit:10;" x1="3492.301" y1="1293.534" x2="3492.301" y2="1321.631"/>
				
					<line style="fill:none;stroke:#0A5244;stroke-width:1.7423;stroke-miterlimit:10;" x1="3492.301" y1="1757.056" x2="3492.301" y2="1785.153"/>
			</g>
			<g>
				
					<line style="fill:none;stroke:#0A5244;stroke-width:1.7423;stroke-miterlimit:10;" x1="3738.111" y1="1539.343" x2="3710.013" y2="1539.343"/>
				
					<line style="fill:none;stroke:#0A5244;stroke-width:1.7423;stroke-miterlimit:10;" x1="3274.589" y1="1539.343" x2="3246.492" y2="1539.343"/>
			</g>
			<g>
				
					<line style="fill:none;stroke:#0A5244;stroke-width:1.7423;stroke-miterlimit:10;" x1="3666.115" y1="1365.53" x2="3646.247" y2="1385.397"/>
				
					<line style="fill:none;stroke:#0A5244;stroke-width:1.7423;stroke-miterlimit:10;" x1="3338.356" y1="1693.289" x2="3318.488" y2="1713.157"/>
			</g>
			<g>
				
					<line style="fill:none;stroke:#0A5244;stroke-width:1.7423;stroke-miterlimit:10;" x1="3666.115" y1="1713.157" x2="3646.247" y2="1693.289"/>
				
					<line style="fill:none;stroke:#0A5244;stroke-width:1.7423;stroke-miterlimit:10;" x1="3338.355" y1="1385.398" x2="3318.488" y2="1365.53"/>
			</g>
		</g>
		<g>
			<g>
				
					<line style="fill:none;stroke:#0A5244;stroke-width:1.7423;stroke-miterlimit:10;" x1="3395.806" y1="1313.266" x2="3406.836" y2="1339.108"/>
				
					<line style="fill:none;stroke:#0A5244;stroke-width:1.7423;stroke-miterlimit:10;" x1="3577.766" y1="1739.579" x2="3588.796" y2="1765.421"/>
			</g>
			<g>
				
					<line style="fill:none;stroke:#0A5244;stroke-width:1.7423;stroke-miterlimit:10;" x1="3718.379" y1="1442.849" x2="3692.537" y2="1453.879"/>
				
					<line style="fill:none;stroke:#0A5244;stroke-width:1.7423;stroke-miterlimit:10;" x1="3292.066" y1="1624.808" x2="3266.224" y2="1635.838"/>
			</g>
			<g>
				
					<line style="fill:none;stroke:#0A5244;stroke-width:1.7423;stroke-miterlimit:10;" x1="3583.93" y1="1311.25" x2="3573.456" y2="1337.323"/>
				
					<line style="fill:none;stroke:#0A5244;stroke-width:1.7423;stroke-miterlimit:10;" x1="3411.146" y1="1741.364" x2="3400.673" y2="1767.436"/>
			</g>
			<g>
				
					<line style="fill:none;stroke:#0A5244;stroke-width:1.7423;stroke-miterlimit:10;" x1="3720.394" y1="1630.972" x2="3694.322" y2="1620.498"/>
				
					<line style="fill:none;stroke:#0A5244;stroke-width:1.7423;stroke-miterlimit:10;" x1="3290.281" y1="1458.188" x2="3264.208" y2="1447.715"/>
			</g>
		</g>
		<g>
			<g>
				<path style="fill:#6163AD;" d="M3488.662,1537.648c18.801-20.124,40.755-43.289,59.897-63.168
					c14.879-15.894,29.845-31.707,46.376-45.924c5.452-4.803,10.995-9.516,16.793-13.974l0.467,0.467
					c-13.51,17.135-28.298,33.182-44.07,48.229c-9.212,8.564-22.329,21.157-31.526,30.007
					c-11.339,10.823-28.145,26.689-39.517,37.399c0,0-7.953,7.43-7.953,7.43L3488.662,1537.648L3488.662,1537.648z"/>
			</g>
			<g>
				<g>
					<path style="fill:#6163AD;" d="M3488.014,1533.907c-2.644-21.048-4.706-42.589-6.169-63.755
						c-0.486-7.961-2.09-15.908-2.132-23.908c0.001-8.069,1.173-15.969,2.954-23.908c1.312-5.461,2.852-10.77,5.347-15.939
						c0,0,1.762,0,1.762,0c2.495,5.167,4.035,10.478,5.347,15.939c1.781,7.939,2.953,15.839,2.954,23.908
						c-0.042,8-1.646,15.947-2.132,23.908c-0.275,3.968-0.866,11.974-1.189,15.939c-1.392,15.851-2.959,32.03-4.979,47.817
						C3489.777,1533.907,3488.014,1533.907,3488.014,1533.907L3488.014,1533.907z"/>
				</g>
			</g>
			<g>
				<path style="fill:#6163AD;" d="M3489.501,1537.242c26.529,21.464,53.235,43.901,79.018,66.291
					c9.677,8.49,20.118,16.161,29.507,24.991c9.394,8.887,17.903,18.557,26.011,28.685c5.413,6.902,10.599,13.907,15.019,21.576
					l-1.212,1.28c-4.017-1.996-7.79-4.25-11.51-6.561c-10.997-6.922-21.413-14.769-31.33-23.065
					c-6.594-5.518-12.792-11.449-18.634-17.757c-8.355-9.201-17.738-19.264-26.5-28.168c-7.966-8.257-18.772-19.67-26.615-28.047
					c-11.72-12.58-23.461-25.138-34.966-37.946L3489.501,1537.242L3489.501,1537.242z"/>
			</g>
			
				<ellipse transform="matrix(0.2298 -0.9732 0.9732 0.2298 1190.5686 4580.1123)" style="fill:#383A4F;" cx="3488.896" cy="1537.882" rx="28.099" ry="28.099"/>
		</g>
	</g>
	<path style="fill:#FFFFFF;" d="M1624.932,2052.985c18.499,8.741,32.677,21.393,42.533,37.967
		c9.846,16.583,14.774,36.412,14.774,59.477c0,15.859-3.158,30.359-9.484,43.491c-6.336,13.141-14.784,23.476-25.354,31.005
		c-10.579,7.529-21.951,11.293-34.123,11.293c-10.735,0-19.428-2.484-26.077-7.45c-6.649-4.967-10.452-12.74-11.411-23.31
		c-5.446,9.934-12.212,17.541-20.308,22.831c-8.086,5.28-17.893,7.929-29.431,7.929c-9.934,0-18.705-2.366-26.312-7.089
		c-7.616-4.722-13.542-11.381-17.785-19.946c-4.243-8.565-6.365-18.46-6.365-29.675c0-3.53,0.078-6.169,0.245-7.929
		c0.958-13.777,4.84-26.155,11.645-37.125c6.815-10.971,15.781-19.545,26.918-25.715c11.137-6.16,23.427-9.25,36.881-9.25
		c17.463,0,31.367,4.684,41.692,14.06c10.335,9.367,15.498,22.068,15.498,38.083c0,3.364-0.235,6.883-0.714,10.57l-3.843,25.949
		c-0.333,2.885-0.489,4.811-0.489,5.769c0,4.654,1.007,7.929,3.012,9.856c1.995,1.917,5.075,2.884,9.25,2.884
		c5.603,0,10.843-2.121,15.732-6.375c4.889-4.234,8.858-10.482,11.9-18.734c3.041-8.252,4.566-18.225,4.566-29.919
		c0-16.817-3.608-31.562-10.814-44.215c-7.206-12.653-17.825-22.469-31.836-29.44c-14.021-6.961-31.122-10.452-51.303-10.452
		c-23.711,0-44.097,4.889-61.159,14.656c-17.062,9.777-29.998,23.153-38.807,40.137c-8.81,16.974-13.219,35.962-13.219,56.945
		c0,29.157,8.614,51.704,25.832,67.642c17.219,15.938,42.337,23.916,75.337,23.916l-6.248,27.632
		c-27.24-0.323-50.384-5.211-69.45-14.656c-19.057-9.455-33.557-23.036-43.491-40.733c-9.934-17.698-14.901-38.964-14.901-63.799
		c0-27.71,6.648-52.105,19.946-73.166c13.298-21.071,31.445-37.37,54.432-48.907c22.987-11.528,48.575-17.296,76.774-17.296
		C1584.443,2039.892,1606.433,2044.263,1624.932,2052.985z M1567.381,2136.847c-5.446-5.358-12.74-8.047-21.862-8.047
		c-6.737,0-12.945,1.799-18.627,5.407c-5.69,3.608-10.218,8.858-13.581,15.742c-3.364,6.883-5.045,15.058-5.045,24.512
		c0,10.247,2.767,18.177,8.292,23.789c5.524,5.603,12.535,8.409,21.032,8.409c6.561,0,12.73-1.809,18.499-5.407
		c5.769-3.608,10.453-8.898,14.06-15.859c3.598-6.971,5.407-15.419,5.407-25.354
		C1575.556,2149.949,1572.827,2142.225,1567.381,2136.847z"/>
	<g>
		<g>
			<g>
				<path style="fill:none;stroke:#0D2143;stroke-width:4.1481;stroke-miterlimit:10;" d="M1140.583,2220.774
					c-1.87,0.909-3.742,1.803-5.616,2.685"/>
				<path style="fill:none;stroke:#0D2143;stroke-width:4.1481;stroke-miterlimit:10;stroke-dasharray:12.4815,12.4815;" d="
					M1123.604,2228.623c-186.799,82.022-386.505,28.397-469.975-101.993c-84.122-131.409-55.159-348.56,64.927-412.288
					c65.588-34.807,170.005-30.027,223.999,32.464c56.704,65.628,34.435,167.874,6.493,223.999
					c-78.051,156.773-346.508,247.239-532.403,136.347c-130.914-78.094-183.432-233.71-178.55-357.099
					c7.765-196.239,163.344-377.264,390.52-441.478"/>
				<path style="fill:none;stroke:#0D2143;stroke-width:4.1481;stroke-miterlimit:10;" d="M634.63,1306.906
					c1.999-0.544,4.003-1.079,6.013-1.604"/>
			</g>
		</g>
	</g>
	<g>
		<path style="fill:#D3D1E9;" d="M2091.336,925.888l-253.804,303.361l-41.625,49.864c-21.954,26.798-58.822,36.139-90.888,23.028
			l-60.347-24.027l-367.912-145.443c11.172-28.582,35.494-49.984,65.266-57.428l665.036-168.501
			C2036.599,899.285,2067.921,906.402,2091.336,925.888z"/>
		<g>
			<path style="fill:#DAD9ED;" d="M1276.76,1132.671l367.912,145.443l-225.096,377.87c-21.709-12.969-37.373-34.036-43.541-58.561
				l-102.973-406.41C1268.073,1171.664,1269.367,1151.233,1276.76,1132.671z"/>
			<path style="fill:#DAD9ED;" d="M2122.832,975.706l102.973,406.412c6.255,24.504,2.513,50.488-10.401,72.229l-377.87-225.096
				l253.803-303.362C2106.865,938.722,2117.895,956.173,2122.832,975.706z"/>
		</g>
	</g>
	<path style="fill:#AFACD6;" d="M1837.533,1229.249l-41.625,49.864c-21.954,26.798-58.822,36.139-90.888,23.028l-60.347-24.028
		l-225.096,377.87c21.741,12.914,47.726,16.657,72.229,10.401l83.261-21.096l0,0l494.47-125.284v0l87.306-22.121
		c24.525-6.168,45.593-21.831,58.562-43.54L1837.533,1229.249z"/>
</g>
</svg>
