<?xml version="1.0" encoding="utf-8"?>
<!-- Generator: Adobe Illustrator 27.5.0, SVG Export Plug-In . SVG Version: 6.00 Build 0)  -->
<svg version="1.1" id="katman_1" xmlns="http://www.w3.org/2000/svg" xmlns:xlink="http://www.w3.org/1999/xlink" x="0px" y="0px"
	 viewBox="0 0 5000 5000" style="enable-background:new 0 0 5000 5000;" xml:space="preserve">
<g>
	<g>
		<defs>
			<rect id="SVGID_1_" y="1" width="4999.88" height="4999.8"/>
		</defs>
		<clipPath id="SVGID_00000021805108641001522720000001782498681953378472_">
			<use xlink:href="#SVGID_1_"  style="overflow:visible;"/>
		</clipPath>
		<path style="clip-path:url(#SVGID_00000021805108641001522720000001782498681953378472_);fill:#00248D;" d="M-0.12,8.125
			l0.57-5.531C4.118-0.922,14.56,0.8,19.939,0.8H4999.88v4995.117l-2.733,4.59l-640.188,0.293H7.204l-7.211-1.344l-0.113-159.593
			V8.125z M-0.12,8.125"/>
		<path style="clip-path:url(#SVGID_00000021805108641001522720000001782498681953378472_);fill:#58C1B9;" d="M-0.12,444.32
			c1.191,5.937,1.895,11.957,5.121,17.191l0.301,41.156l-5.422,1.028V444.32z M-0.12,444.32"/>
		<path style="clip-path:url(#SVGID_00000021805108641001522720000001782498681953378472_);fill:#9BC9C8;" d="M-0.12,2378.034
			c1.359,7.196,2.402,14.7,4.496,21.707l0.371,63.536l-4.867-1.465V2378.034z M-0.12,2378.034"/>
		<path style="clip-path:url(#SVGID_00000021805108641001522720000001782498681953378472_);fill:#BDDECB;" d="M-0.12,2461.812
			l4.867,1.465l-0.262,87.961c-1.738-5.125-2.808-8.129-2.558-13.672l0.355-3.711l-2.402-2.903V2461.812z M-0.12,2461.812"/>
		<path style="clip-path:url(#SVGID_00000021805108641001522720000001782498681953378472_);fill:#58C1B9;" d="M4.153,1040.128
			l0.625,94.379l-4.898-3.457v-65.797C3.138,1060.491,3.22,1046.413,4.153,1040.128L4.153,1040.128z M4.153,1040.128"/>
		<path style="clip-path:url(#SVGID_00000021805108641001522720000001782498681953378472_);fill:#A8CBD4;" d="M4.821,3257.027
			l-0.148,115.671l-4.793,1.27v-118.09L4.821,3257.027z M4.821,3257.027"/>
		<path style="clip-path:url(#SVGID_00000021805108641001522720000001782498681953378472_);fill:#53BDC2;" d="M-0.12,4715.667
			l4.773,1.978l1.098,112.159l-5.871,10.059V4715.667z M-0.12,4715.667"/>
		<path style="clip-path:url(#SVGID_00000021805108641001522720000001782498681953378472_);fill:#93BBCC;" d="M-0.12,2978.655
			l4.395,1.833l0.343,152.855l-4.738-17.992V2978.655z M-0.12,2978.655"/>
		<path style="clip-path:url(#SVGID_00000021805108641001522720000001782498681953378472_);fill:#FEFEFD;" d="M-0.12,3115.351
			l4.738,17.992l0.203,123.684l-4.941-1.149V3115.351z M-0.12,3115.351"/>
		<path style="clip-path:url(#SVGID_00000021805108641001522720000001782498681953378472_);fill:#A8CBD4;" d="M-0.12,1907.433
			l4.672,11.465l-0.563,134.199c-2.316,7.836-3.5,14.758-4.109,22.898V1907.433z M-0.12,1907.433"/>
		<path style="clip-path:url(#SVGID_00000021805108641001522720000001782498681953378472_);fill:#C1E8C2;" d="M-0.12,3373.968
			l4.793-1.27l0.059,96.219c0.003,16.039,1.343,33.25-0.387,49.168l-1.961-0.219l-2.504-20.972V3373.968z M-0.12,3373.968"/>
		<path style="clip-path:url(#SVGID_00000021805108641001522720000001782498681953378472_);fill:#9BC9C8;" d="M-0.12,1777.331
			l1.688-0.609c0.121-8.902-1.094-19.149,2.535-27.324l0.449,169.5l-4.672-11.465V1777.331z M-0.12,1777.331"/>
		<path style="clip-path:url(#SVGID_00000021805108641001522720000001782498681953378472_);fill:#93BBCC;" d="M3081.79,0.8h210.692
			l-0.098,2.441l-210.645-0.304L3081.79,0.8z M3081.79,0.8"/>
		<path style="clip-path:url(#SVGID_00000021805108641001522720000001782498681953378472_);fill:#BDDECB;" d="M-0.12,1131.05
			l4.898,3.457L4.724,1292.46l-4.844,11.035V1131.05z M-0.12,1131.05"/>
		<path style="clip-path:url(#SVGID_00000021805108641001522720000001782498681953378472_);fill:#A8CBD4;" d="M4.806,1574.698
			l-0.703,174.7c-3.629,8.175-2.414,18.422-2.535,27.324l-1.688,0.609v-193.226L4.806,1574.698z M4.806,1574.698"/>
		<path style="clip-path:url(#SVGID_00000021805108641001522720000001782498681953378472_);fill:#53BDC2;" d="M-0.12,313.073
			l5.379,1.543L5.001,461.511c-3.226-5.234-3.93-11.254-5.121-17.191V313.073z M-0.12,313.073"/>
		<path style="clip-path:url(#SVGID_00000021805108641001522720000001782498681953378472_);fill:#A8CBD4;" d="M1130.278,0.8h225.286
			l-33.778,4.449l-192.008,0.438L1130.278,0.8z M1130.278,0.8"/>
		<path style="clip-path:url(#SVGID_00000021805108641001522720000001782498681953378472_);fill:#BDDECB;" d="M-0.12,3496.894
			l2.504,20.972l1.961,0.219l0.172,220.363l-4.637-11.574V3496.894z M-0.12,3496.894"/>
		<path style="clip-path:url(#SVGID_00000021805108641001522720000001782498681953378472_);fill:#6091B7;" d="M5.751,4829.804
			c2.555,30.641,1.926,62.16,1.297,92.871c-0.363,17.555-7.504,61.621,0.582,75.684l-0.426,2.441l-7.211-1.344l-0.113-159.593
			L5.751,4829.804z M5.751,4829.804"/>
		<path style="clip-path:url(#SVGID_00000021805108641001522720000001782498681953378472_);fill:#72C9C6;" d="M-0.12,503.695
			l5.422-1.028L5.071,753.734l-5.191-2.899V503.695z M-0.12,503.695"/>
		<path style="clip-path:url(#SVGID_00000021805108641001522720000001782498681953378472_);fill:#C1E8C2;" d="M4.724,1292.46
			l0.082,282.238l-4.926,9.407v-280.61L4.724,1292.46z M4.724,1292.46"/>
		<path style="clip-path:url(#SVGID_00000021805108641001522720000001782498681953378472_);fill:#9BC9C8;" d="M-0.12,8.125
			l4.027-0.535l1.352,307.027l-5.379-1.543V8.125z M-0.12,8.125"/>
		<path style="clip-path:url(#SVGID_00000021805108641001522720000001782498681953378472_);fill:#93BBCC;" d="M-0.12,2075.995
			c0.609-8.14,1.793-15.062,4.109-22.898l0.387,346.644c-2.094-7.007-3.137-14.511-4.496-21.707V2075.995z M-0.12,2075.995"/>
		<path style="clip-path:url(#SVGID_00000021805108641001522720000001782498681953378472_);fill:#53BDC2;" d="M-0.12,750.835
			l5.191,2.899L4.997,965.933c-0.187,23.14,2.738,51.586-0.844,74.195c-0.933,6.285-1.015,20.363-4.273,25.125V750.835z
			 M-0.12,750.835"/>
		<path style="clip-path:url(#SVGID_00000021805108641001522720000001782498681953378472_);fill:#70AABF;" d="M2535.743,0.8h546.047
			l-0.051,2.137l-409.3,0.688c-8.84-3.27-23.852-1.258-33.496-1.207C2606.349,2.578,2567.579,6.968,2535.743,0.8L2535.743,0.8z
			 M2535.743,0.8"/>
		<path style="clip-path:url(#SVGID_00000021805108641001522720000001782498681953378472_);fill:#70AABF;" d="M3292.482,0.8h376.074
			l26.269,4.566l-402.441-2.126L3292.482,0.8z M3292.482,0.8"/>
		<path style="clip-path:url(#SVGID_00000021805108641001522720000001782498681953378472_);fill:#9BC9C8;" d="M-0.12,2530.952
			l2.402,2.903l-0.355,3.711c-0.25,5.543,0.82,8.547,2.558,13.672l-0.21,429.25l-4.395-1.833V2530.952z M-0.12,2530.952"/>
		<path style="clip-path:url(#SVGID_00000021805108641001522720000001782498681953378472_);fill:#6091B7;" d="M1355.564,0.8
			h1180.179c31.836,6.168,70.606,1.777,103.2,1.617c9.644-0.051,24.656-2.063,33.496,1.207L1321.786,5.249L1355.564,0.8z
			 M1355.564,0.8"/>
		<path style="clip-path:url(#SVGID_00000021805108641001522720000001782498681953378472_);fill:#72C9C6;" d="M-0.12,3726.874
			l4.637,11.574l0.136,979.197l-4.773-1.978V3726.874z M-0.12,3726.874"/>
		<path style="clip-path:url(#SVGID_00000021805108641001522720000001782498681953378472_);fill:#FEFEFD;" d="M-0.12,8.125
			l0.57-5.531C4.118-0.922,14.56,0.8,19.939,0.8h1110.339l-0.5,4.887L3.907,7.589L-0.12,8.125z M-0.12,8.125"/>
		<path style="clip-path:url(#SVGID_00000021805108641001522720000001782498681953378472_);fill:#FEFEFD;" d="M3668.556,0.8H4999.88
			v9.766c-13.062-3.484-26.832-2.555-40.258-2.648l-63.354-0.172l-212.161,0.172l-989.282-2.551L3668.556,0.8z M3668.556,0.8"/>
	</g>
	<path style="fill:#FEFEFD;" d="M2988.868,1015.046c49.903-3.066,100.367,0.875,150.149,4.344
		c67.429,4.703,133.543,10.012,200.437,20.234l190.676,35.918l-5.203,469.75l-271.774,0.117
		c-69.726,0.262-143.898-4.421-212.332,10.051c-27.562,5.832-58.226,20.637-81.152,36.879
		c-55.98,39.637-82.789,90.406-94.629,157.727c-7.129,40.652-3.953,84.359-3.855,125.543l0.316,187.738l593.996,0.699
		l-91.601,431.457l-502.2-1.074l9.008,1421.777l0.953,91.477c-20.8,2.785-42.675,1.418-63.672,1.418l-105.054,0.465l-406.992-0.684
		l8.683-1514.16l-490.722,1.562l2.898-432.328l482.227-0.371l1.531-168.066c-0.871-96.375-2.246-192.973,5.679-289.129
		c5.012-60.793,12.997-121.871,31.477-180.305c24.328-76.941,64.938-147.14,119.348-206.664
		c65.328-71.453,156.636-132.672,249.191-162.715C2797.489,1027.097,2893.728,1019.731,2988.868,1015.046L2988.868,1015.046z
		 M2988.868,1015.046"/>
</g>
</svg>
