<?xml version="1.0" encoding="utf-8"?>
<!-- Generator: Adobe Illustrator 27.5.0, SVG Export Plug-In . SVG Version: 6.00 Build 0)  -->
<svg version="1.1" id="Layer_1" xmlns="http://www.w3.org/2000/svg" xmlns:xlink="http://www.w3.org/1999/xlink" x="0px" y="0px"
	 viewBox="0 0 4000 4000" style="enable-background:new 0 0 4000 4000;" xml:space="preserve">
<g id="instagram_1_">
	<path style="fill:#B3B3B3;" d="M3183.052,394.374c259.012,0,470.93,211.918,470.93,470.93v2325.417
		c0,259.011-211.918,470.929-470.93,470.929H857.635c-259.012,0-470.929-211.918-470.929-470.929V865.304
		c0-259.012,211.917-470.93,470.929-470.93H3183.052 M3183.052,304.158H857.635c-75.483,0-148.871,14.919-218.129,44.342
		c-66.729,28.349-126.704,68.863-178.258,120.417c-51.554,51.554-92.068,111.529-120.416,178.258
		c-29.423,69.257-44.342,142.646-44.342,218.129v2325.417c0,75.482,14.919,148.871,44.342,218.129
		c28.348,66.728,68.862,126.703,120.416,178.258c51.554,51.554,111.529,92.068,178.258,120.417
		c69.258,29.423,142.647,44.342,218.129,44.342h2325.417c75.482,0,148.871-14.919,218.129-44.342
		c66.729-28.349,126.704-68.863,178.258-120.417c51.554-51.554,92.069-111.529,120.418-178.258
		c29.423-69.258,44.342-142.646,44.342-218.129V865.304c0-75.483-14.919-148.871-44.342-218.13
		c-28.349-66.729-68.864-126.703-120.418-178.258c-51.554-51.554-111.529-92.068-178.258-120.417
		C3331.923,319.077,3258.534,304.158,3183.052,304.158L3183.052,304.158z"/>
	<g>
		<linearGradient id="SVGID_1_" gradientUnits="userSpaceOnUse" x1="452.4588" y1="3499.1865" x2="3506.856" y2="444.7893">
			<stop  offset="0.0447" style="stop-color:#662D91"/>
			<stop  offset="0.1098" style="stop-color:#73299A"/>
			<stop  offset="0.2292" style="stop-color:#941FB2"/>
			<stop  offset="0.3883" style="stop-color:#C910D8"/>
			<stop  offset="0.5307" style="stop-color:#FF00FF"/>
			<stop  offset="0.8268" style="stop-color:#FBB03B"/>
		</linearGradient>
		<path style="fill:url(#SVGID_1_);" d="M816.948,3650.733c-137.318,0-266.764-53.821-364.491-151.548
			c-97.725-97.725-151.547-227.171-151.547-364.489V809.279c0-137.318,53.821-266.763,151.547-364.49
			c97.727-97.727,227.173-151.548,364.491-151.548h2325.417c137.318,0,266.764,53.82,364.491,151.548
			c97.725,97.727,151.546,227.172,151.546,364.49v2325.417c0,137.318-53.821,266.764-151.546,364.491
			c-97.727,97.725-227.173,151.546-364.491,151.546H816.948z"/>
		<path style="fill:#FFFFFF;" d="M3142.365,338.35c259.012,0,470.93,211.918,470.93,470.93v2325.417
			c0,259.011-211.918,470.929-470.93,470.929H816.948c-259.012,0-470.93-211.918-470.93-470.929V809.279
			c0-259.011,211.918-470.93,470.93-470.93H3142.365 M3142.365,248.133H816.948c-75.482,0-148.871,14.919-218.129,44.342
			c-66.729,28.349-126.703,68.863-178.258,120.417c-51.554,51.555-92.068,111.529-120.416,178.258
			c-29.424,69.257-44.342,142.646-44.342,218.129v2325.417c0,75.482,14.919,148.871,44.342,218.129
			c28.348,66.729,68.862,126.703,120.416,178.258c51.555,51.554,111.529,92.069,178.258,120.417
			c69.258,29.424,142.647,44.342,218.129,44.342h2325.417c75.482,0,148.871-14.919,218.129-44.342
			c66.728-28.348,126.704-68.862,178.258-120.417c51.554-51.554,92.068-111.529,120.417-178.258
			c29.423-69.257,44.342-142.646,44.342-218.129V809.279c0-75.483-14.919-148.871-44.342-218.129
			c-28.349-66.729-68.864-126.703-120.417-178.258c-51.554-51.554-111.53-92.069-178.258-120.417
			C3291.236,263.052,3217.847,248.133,3142.365,248.133L3142.365,248.133z"/>
	</g>
	<path style="fill:#FFFFFF;" d="M2574.963,1050.488c152.661,0,277.565,124.904,277.565,277.565v1242.4
		c0,152.661-124.904,277.566-277.565,277.566H1332.564c-152.661,0-277.565-124.905-277.565-277.566v-1242.4
		c0-152.661,124.904-277.565,277.565-277.565H2574.963 M2574.963,915.163H1332.564c-55.589,0-109.651,10.994-160.687,32.675
		c-49.074,20.849-93.16,50.622-131.032,88.495c-37.873,37.872-67.646,81.958-88.495,131.032
		c-21.682,51.037-32.675,105.099-32.675,160.688v1242.4c0,55.589,10.994,109.651,32.675,160.688
		c20.849,49.074,50.623,93.16,88.496,131.032c37.872,37.872,81.958,67.646,131.032,88.495
		c51.036,21.682,105.098,32.675,160.687,32.675h1242.399c55.589,0,109.652-10.994,160.687-32.675
		c49.075-20.849,93.16-50.623,131.032-88.495c37.873-37.873,67.647-81.959,88.496-131.032
		c21.682-51.036,32.675-105.099,32.675-160.688v-1242.4c0-55.589-10.993-109.651-32.676-160.688
		c-20.848-49.074-50.622-93.159-88.495-131.032c-37.872-37.873-81.957-67.646-131.032-88.495
		C2684.615,926.157,2630.553,915.163,2574.963,915.163L2574.963,915.163z"/>
	<path style="fill:#FFFFFF;" d="M1953.764,1482.294c257.895,0,466.96,209.065,466.96,466.959
		c0,257.895-209.065,466.96-466.96,466.96c-257.894,0-466.959-209.065-466.959-466.96
		C1486.805,1691.359,1695.87,1482.294,1953.764,1482.294 M1953.764,1346.97c-81.248,0-160.137,15.943-234.477,47.386
		c-71.736,30.341-136.132,73.75-191.401,129.018c-55.269,55.27-98.677,119.666-129.019,191.402
		c-31.443,74.339-47.386,153.229-47.386,234.477c0,81.248,15.943,160.138,47.386,234.478
		c30.342,71.735,73.75,136.132,129.019,191.401c55.269,55.269,119.666,98.677,191.401,129.019
		c74.34,31.443,153.229,47.386,234.477,47.386c81.249,0,160.138-15.943,234.478-47.386c71.736-30.342,136.133-73.75,191.402-129.019
		c55.27-55.269,98.677-119.666,129.02-191.401c31.442-74.34,47.386-153.23,47.386-234.478c0-81.248-15.943-160.138-47.386-234.477
		c-30.342-71.736-73.75-136.132-129.02-191.402c-55.269-55.269-119.666-98.677-191.402-129.018
		C2113.902,1362.913,2035.012,1346.97,1953.764,1346.97L1953.764,1346.97z"/>
	<circle style="fill:#FFFFFF;" cx="2553.995" cy="1349.023" r="133.272"/>
</g>
</svg>
