<?xml version="1.0" encoding="utf-8"?>
<!-- Generator: Adobe Illustrator 27.5.0, SVG Export Plug-In . SVG Version: 6.00 Build 0)  -->
<svg version="1.1" xmlns="http://www.w3.org/2000/svg" xmlns:xlink="http://www.w3.org/1999/xlink" x="0px" y="0px"
	 viewBox="0 0 2200 2210" style="enable-background:new 0 0 2200 2210;" xml:space="preserve">
<g>
	<rect y="5" style="fill-rule:evenodd;clip-rule:evenodd;fill:none;" width="2200" height="2200"/>
</g>
<g>
	<g id="XMLID_39_">
		
			<ellipse id="XMLID_29_" transform="matrix(0.7071 -0.7071 0.7071 0.7071 -459.257 1101.7946)" style="fill-rule:evenodd;clip-rule:evenodd;fill:#0B66C3;" cx="1100.355" cy="1105.27" rx="1005" ry="1005"/>
		<path id="XMLID_162_" style="fill-rule:evenodd;clip-rule:evenodd;fill:#FFFFFF;" d="M601.44,925.869h199.724v670.683H601.44
			V925.869z M700.069,585.598c66.576,0,120.822,54.245,120.822,120.82c0,66.576-54.246,120.822-120.822,120.822
			c-66.575,0-118.356-54.246-118.356-120.822C581.713,639.843,633.494,585.598,700.069,585.598L700.069,585.598z M919.52,925.869
			h197.259v93.699c41.918-61.643,110.958-101.096,189.863-101.096h54.246c125.752,0,226.849,103.561,226.849,226.849v101.095
			v120.821v229.315h-197.26v-2.466v-59.177l0,0v-300.821l0,0c-2.466-76.438-54.246-135.616-130.684-135.616l0,0
			c-76.439,0-140.547,59.178-143.014,135.616l0,0v261.368v101.096H919.52V925.869z"/>
	</g>
</g>
</svg>
